<svg xmlns="http://www.w3.org/2000/svg" xmlns:xlink="http://www.w3.org/1999/xlink" width="50" zoomAndPan="magnify" viewBox="0 0 37.5 37.499999" height="50" preserveAspectRatio="xMidYMid meet" version="1.2"><defs><clipPath id="b0a186a35d"><path d="M 0 0 L 37.007812 0 L 37.007812 37.007812 L 0 37.007812 Z M 0 0 "/></clipPath><clipPath id="69dc158b0a"><path d="M 32.066406 26.484375 L 33.417969 26.484375 L 33.417969 31.039062 L 32.066406 31.039062 Z M 32.066406 26.484375 "/></clipPath><clipPath id="a8e4999967"><path d="M 26.484375 26.484375 L 27.78125 26.484375 L 27.78125 31.039062 L 26.484375 31.039062 Z M 26.484375 26.484375 "/></clipPath><clipPath id="5241f486a2"><path d="M 4.953125 25.304688 L 36.988281 25.304688 L 36.988281 26.429688 L 4.953125 26.429688 Z M 4.953125 25.304688 "/></clipPath><clipPath id="1960c40369"><path d="M 9.855469 26.484375 L 11.210938 26.484375 L 11.210938 31.039062 L 9.855469 31.039062 Z M 9.855469 26.484375 "/></clipPath><clipPath id="fc11128fd3"><path d="M 4.503906 26.484375 L 5.855469 26.484375 L 5.855469 31.039062 L 4.503906 31.039062 Z M 4.503906 26.484375 "/></clipPath><clipPath id="73102f5472"><path d="M 18 5.875 L 22 5.875 L 22 6 L 18 6 Z M 18 5.875 "/></clipPath><clipPath id="46f62679c5"><path d="M 6 29.515625 L 10.871094 29.515625 L 10.871094 31.039062 L 6 31.039062 Z M 6 29.515625 "/></clipPath><clipPath id="485d85dfc9"><path d="M 4.785156 29.011719 L 17 29.011719 L 17 31.039062 L 4.785156 31.039062 Z M 4.785156 29.011719 "/></clipPath><clipPath id="2f0088681f"><path d="M 0.0507812 22.777344 L 8.671875 22.777344 L 8.671875 31.039062 L 0.0507812 31.039062 Z M 0.0507812 22.777344 "/></clipPath><clipPath id="12e78eb050"><path d="M 9.460938 29.238281 L 14.421875 29.238281 L 14.421875 31.039062 L 9.460938 31.039062 Z M 9.460938 29.238281 "/></clipPath></defs><g id="91d5fedbc3"><g clip-rule="nonzero" clip-path="url(#b0a186a35d)"><path style=" stroke:none;fill-rule:nonzero;fill:#ffffff;fill-opacity:1;" d="M 0 0 L 37.007812 0 L 37.007812 37.007812 L 0 37.007812 Z M 0 0 "/><path style=" stroke:none;fill-rule:nonzero;fill:#ffffff;fill-opacity:1;" d="M 0 0 L 37.007812 0 L 37.007812 37.007812 L 0 37.007812 Z M 0 0 "/></g><path style=" stroke:none;fill-rule:nonzero;fill:#ced5d8;fill-opacity:1;" d="M 24.363281 22.75 L 24.984375 25.03125 C 25.03125 25.199219 24.902344 25.363281 24.730469 25.363281 L 16.390625 25.363281 C 16.335938 25.363281 16.289062 25.316406 16.289062 25.261719 C 16.289062 25.207031 16.335938 25.164062 16.390625 25.164062 L 19.523438 25.164062 L 19.523438 22.75 L 24.363281 22.75 "/><path style=" stroke:none;fill-rule:nonzero;fill:#333333;fill-opacity:1;" d="M 16.390625 25.199219 C 16.355469 25.199219 16.328125 25.226562 16.328125 25.261719 C 16.328125 25.296875 16.355469 25.324219 16.390625 25.324219 L 24.730469 25.324219 C 24.800781 25.324219 24.867188 25.292969 24.910156 25.238281 C 24.953125 25.179688 24.96875 25.109375 24.949219 25.042969 L 24.335938 22.785156 L 19.558594 22.785156 L 19.558594 25.199219 Z M 24.730469 25.398438 L 16.390625 25.398438 C 16.316406 25.398438 16.253906 25.335938 16.253906 25.261719 C 16.253906 25.1875 16.316406 25.125 16.390625 25.125 L 19.484375 25.125 L 19.484375 22.714844 L 24.390625 22.714844 L 25.019531 25.023438 C 25.042969 25.113281 25.023438 25.207031 24.96875 25.28125 C 24.910156 25.355469 24.824219 25.398438 24.730469 25.398438 "/><path style=" stroke:none;fill-rule:nonzero;fill:#dee6e9;fill-opacity:1;" d="M 24.984375 25.03125 L 24.59375 23.601562 L 24.550781 23.441406 L 24.363281 22.75 L 24.210938 22.859375 L 24.382812 23.503906 L 22.652344 24.144531 C 22.761719 24.234375 22.910156 24.257812 23.042969 24.203125 L 24.425781 23.667969 L 24.804688 25.097656 C 24.8125 25.132812 24.789062 25.164062 24.753906 25.164062 L 18.640625 25.164062 L 18.640625 25.363281 L 24.730469 25.363281 C 24.902344 25.363281 25.03125 25.199219 24.984375 25.03125 "/><path style=" stroke:none;fill-rule:nonzero;fill:#333333;fill-opacity:1;" d="M 18.675781 25.324219 L 24.730469 25.324219 C 24.800781 25.324219 24.867188 25.292969 24.910156 25.238281 C 24.953125 25.179688 24.96875 25.109375 24.949219 25.042969 L 24.339844 22.808594 L 24.253906 22.875 L 24.425781 23.527344 L 22.730469 24.152344 C 22.824219 24.203125 22.929688 24.210938 23.03125 24.171875 L 24.449219 23.617188 L 24.839844 25.089844 C 24.847656 25.117188 24.84375 25.144531 24.824219 25.164062 C 24.808594 25.1875 24.785156 25.199219 24.753906 25.199219 L 18.675781 25.199219 Z M 24.730469 25.398438 L 18.601562 25.398438 L 18.601562 25.125 L 24.753906 25.125 C 24.761719 25.125 24.765625 25.125 24.769531 25.121094 C 24.769531 25.117188 24.773438 25.113281 24.769531 25.109375 L 24.402344 23.714844 L 23.054688 24.238281 C 22.914062 24.292969 22.75 24.269531 22.628906 24.171875 L 22.578125 24.132812 L 24.339844 23.480469 L 24.167969 22.84375 L 24.382812 22.6875 L 25.019531 25.023438 C 25.042969 25.113281 25.023438 25.207031 24.96875 25.28125 C 24.910156 25.355469 24.824219 25.398438 24.730469 25.398438 "/><path style=" stroke:none;fill-rule:nonzero;fill:#ffffff;fill-opacity:1;" d="M 16.289062 25.261719 C 16.289062 25.207031 16.335938 25.164062 16.390625 25.164062 L 21.640625 25.164062 C 21.695312 25.164062 21.738281 25.207031 21.738281 25.261719 C 21.738281 25.316406 21.695312 25.363281 21.640625 25.363281 L 16.390625 25.363281 C 16.335938 25.363281 16.289062 25.316406 16.289062 25.261719 "/><path style=" stroke:none;fill-rule:nonzero;fill:#333333;fill-opacity:1;" d="M 16.390625 25.199219 C 16.355469 25.199219 16.328125 25.226562 16.328125 25.261719 C 16.328125 25.296875 16.355469 25.324219 16.390625 25.324219 L 21.640625 25.324219 C 21.675781 25.324219 21.703125 25.296875 21.703125 25.261719 C 21.703125 25.226562 21.675781 25.199219 21.640625 25.199219 Z M 21.640625 25.398438 L 16.390625 25.398438 C 16.316406 25.398438 16.253906 25.335938 16.253906 25.261719 C 16.253906 25.1875 16.316406 25.125 16.390625 25.125 L 21.640625 25.125 C 21.714844 25.125 21.777344 25.1875 21.777344 25.261719 C 21.777344 25.335938 21.714844 25.398438 21.640625 25.398438 "/><path style=" stroke:none;fill-rule:nonzero;fill:#dee6e9;fill-opacity:1;" d="M 26.558594 17.582031 L 19.835938 17.582031 C 19.519531 17.582031 19.242188 17.777344 19.136719 18.074219 L 17.484375 22.75 L 25.292969 22.75 L 26.933594 18.109375 C 27.023438 17.851562 26.832031 17.582031 26.558594 17.582031 "/><path style=" stroke:none;fill-rule:nonzero;fill:#333333;fill-opacity:1;" d="M 17.5625 22.691406 L 25.25 22.691406 L 26.878906 18.089844 C 26.917969 17.984375 26.902344 17.871094 26.835938 17.78125 C 26.769531 17.6875 26.667969 17.636719 26.558594 17.636719 L 19.835938 17.636719 C 19.546875 17.636719 19.285156 17.820312 19.1875 18.09375 Z M 25.332031 22.804688 L 17.402344 22.804688 L 19.082031 18.058594 C 19.195312 17.738281 19.496094 17.523438 19.835938 17.523438 L 26.558594 17.523438 C 26.707031 17.523438 26.84375 17.59375 26.929688 17.714844 C 27.015625 17.835938 27.035156 17.988281 26.984375 18.125 L 25.332031 22.804688 "/><path style=" stroke:none;fill-rule:nonzero;fill:#58595b;fill-opacity:1;" d="M 26.285156 17.582031 L 19.5625 17.582031 C 19.246094 17.582031 18.964844 17.777344 18.863281 18.074219 L 17.207031 22.75 L 25.015625 22.75 L 26.660156 18.109375 C 26.75 17.851562 26.558594 17.582031 26.285156 17.582031 "/><path style=" stroke:none;fill-rule:nonzero;fill:#333333;fill-opacity:1;" d="M 17.289062 22.691406 L 24.976562 22.691406 L 26.605469 18.089844 C 26.640625 17.984375 26.625 17.871094 26.5625 17.78125 C 26.496094 17.6875 26.394531 17.636719 26.285156 17.636719 L 19.5625 17.636719 C 19.273438 17.636719 19.011719 17.820312 18.914062 18.09375 Z M 25.058594 22.804688 L 17.128906 22.804688 L 18.808594 18.058594 C 18.921875 17.738281 19.222656 17.523438 19.5625 17.523438 L 26.285156 17.523438 C 26.433594 17.523438 26.566406 17.59375 26.652344 17.714844 C 26.738281 17.835938 26.761719 17.988281 26.710938 18.125 L 25.058594 22.804688 "/><path style=" stroke:none;fill-rule:nonzero;fill:#dee6e9;fill-opacity:1;" d="M 14.707031 24.183594 L 22.492188 24.183594 L 22.886719 23.792969 L 14.316406 23.792969 C 14.316406 24.007812 14.492188 24.183594 14.707031 24.183594 "/><path style=" stroke:none;fill-rule:nonzero;fill:#333333;fill-opacity:1;" d="M 14.375 23.847656 C 14.402344 24.007812 14.542969 24.128906 14.707031 24.128906 L 22.46875 24.128906 L 22.75 23.847656 Z M 22.515625 24.238281 L 14.707031 24.238281 C 14.460938 24.238281 14.257812 24.039062 14.257812 23.792969 L 14.257812 23.734375 L 23.023438 23.734375 L 22.515625 24.238281 "/><path style=" stroke:none;fill-rule:nonzero;fill:#dee6e9;fill-opacity:1;" d="M 21.855469 23.78125 C 21.976562 24.101562 22.332031 24.265625 22.652344 24.144531 L 24.957031 23.292969 C 25.277344 23.171875 25.441406 22.816406 25.320312 22.5 L 21.855469 23.78125 "/><path style=" stroke:none;fill-rule:nonzero;fill:#333333;fill-opacity:1;" d="M 21.929688 23.8125 C 22.054688 24.070312 22.359375 24.195312 22.632812 24.09375 L 24.9375 23.238281 C 25.078125 23.1875 25.191406 23.082031 25.253906 22.949219 C 25.308594 22.828125 25.320312 22.695312 25.285156 22.570312 Z M 22.433594 24.242188 C 22.339844 24.242188 22.246094 24.21875 22.15625 24.179688 C 21.992188 24.105469 21.867188 23.96875 21.804688 23.800781 L 21.785156 23.75 L 25.355469 22.425781 L 25.375 22.480469 C 25.4375 22.648438 25.429688 22.832031 25.355469 22.992188 C 25.28125 23.15625 25.144531 23.28125 24.976562 23.34375 L 22.671875 24.199219 C 22.59375 24.226562 22.515625 24.242188 22.433594 24.242188 "/><path style=" stroke:none;fill-rule:nonzero;fill:#ffffff;fill-opacity:1;" d="M 17.949219 22.210938 L 24.683594 22.210938 L 26.109375 18.234375 L 19.375 18.234375 L 17.949219 22.210938 "/><path style=" stroke:none;fill-rule:nonzero;fill:#333333;fill-opacity:1;" d="M 18.03125 22.15625 L 24.644531 22.15625 L 26.03125 18.289062 L 19.414062 18.289062 Z M 24.722656 22.269531 L 17.871094 22.269531 L 19.335938 18.175781 L 26.1875 18.175781 L 24.722656 22.269531 "/><path style=" stroke:none;fill-rule:nonzero;fill:#dee6e9;fill-opacity:1;" d="M 22.449219 19.167969 L 25.167969 19.167969 L 25.328125 18.726562 L 22.609375 18.726562 L 22.449219 19.167969 "/><path style=" stroke:none;fill-rule:nonzero;fill:#dee6e9;fill-opacity:1;" d="M 19.316406 19.167969 L 21.582031 19.167969 L 21.742188 18.726562 L 19.480469 18.726562 L 19.316406 19.167969 "/><path style=" stroke:none;fill-rule:nonzero;fill:#dee6e9;fill-opacity:1;" d="M 22.144531 19.996094 L 24.867188 19.996094 L 25.027344 19.554688 L 22.308594 19.554688 L 22.144531 19.996094 "/><path style=" stroke:none;fill-rule:nonzero;fill:#dee6e9;fill-opacity:1;" d="M 19.015625 19.996094 L 21.277344 19.996094 L 21.441406 19.554688 L 19.175781 19.554688 L 19.015625 19.996094 "/><path style=" stroke:none;fill-rule:nonzero;fill:#dee6e9;fill-opacity:1;" d="M 21.820312 20.882812 L 24.539062 20.882812 L 24.703125 20.441406 L 21.980469 20.441406 L 21.820312 20.882812 "/><path style=" stroke:none;fill-rule:nonzero;fill:#dee6e9;fill-opacity:1;" d="M 18.417969 21.769531 L 24.214844 21.769531 L 24.378906 21.328125 L 18.578125 21.328125 L 18.417969 21.769531 "/><path style=" stroke:none;fill-rule:nonzero;fill:#dee6e9;fill-opacity:1;" d="M 18.691406 20.882812 L 20.953125 20.882812 L 21.113281 20.441406 L 18.851562 20.441406 L 18.691406 20.882812 "/><path style=" stroke:none;fill-rule:nonzero;fill:#dee6e9;fill-opacity:1;" d="M 25.320312 22.5 L 17.296875 22.5 L 14.316406 23.792969 L 21.855469 23.78125 L 25.320312 22.5 "/><path style=" stroke:none;fill-rule:nonzero;fill:#333333;fill-opacity:1;" d="M 17.308594 22.554688 L 14.585938 23.734375 L 21.84375 23.726562 L 25.007812 22.554688 Z M 14.316406 23.847656 C 14.289062 23.847656 14.265625 23.828125 14.261719 23.804688 C 14.253906 23.777344 14.269531 23.75 14.292969 23.742188 L 17.273438 22.449219 C 17.28125 22.445312 17.289062 22.441406 17.296875 22.441406 L 25.320312 22.441406 C 25.347656 22.441406 25.371094 22.460938 25.378906 22.488281 C 25.382812 22.515625 25.367188 22.542969 25.339844 22.550781 L 21.875 23.835938 C 21.871094 23.835938 21.863281 23.839844 21.855469 23.839844 L 14.316406 23.847656 "/><path style=" stroke:none;fill-rule:nonzero;fill:#58595b;fill-opacity:1;" d="M 22.117188 23.300781 L 23.621094 22.75 L 17.761719 22.75 L 16.433594 23.300781 L 22.117188 23.300781 "/><path style=" stroke:none;fill-rule:nonzero;fill:#333333;fill-opacity:1;" d="M 16.714844 23.246094 L 22.105469 23.246094 L 23.304688 22.804688 L 17.773438 22.804688 Z M 22.117188 23.359375 L 16.433594 23.359375 C 16.40625 23.359375 16.382812 23.339844 16.378906 23.3125 C 16.371094 23.285156 16.386719 23.261719 16.410156 23.25 L 17.742188 22.695312 C 17.75 22.695312 17.753906 22.691406 17.761719 22.691406 L 23.621094 22.691406 C 23.648438 22.691406 23.671875 22.710938 23.675781 22.738281 C 23.679688 22.765625 23.664062 22.792969 23.640625 22.800781 L 22.136719 23.355469 C 22.128906 23.355469 22.125 23.359375 22.117188 23.359375 "/><path style=" stroke:none;fill-rule:nonzero;fill:#ffffff;fill-opacity:1;" d="M 19.765625 24.089844 L 20.707031 24.089844 C 20.707031 24.148438 20.753906 24.195312 20.8125 24.195312 L 20.988281 24.195312 C 20.988281 24.246094 20.945312 24.289062 20.894531 24.289062 L 19.941406 24.289062 C 19.84375 24.289062 19.765625 24.210938 19.765625 24.117188 L 19.765625 24.089844 "/><path style=" stroke:none;fill-rule:nonzero;fill:#333333;fill-opacity:1;" d="M 19.804688 24.125 C 19.808594 24.195312 19.867188 24.253906 19.941406 24.253906 L 20.894531 24.253906 C 20.914062 24.253906 20.929688 24.246094 20.9375 24.230469 L 20.8125 24.230469 C 20.746094 24.230469 20.691406 24.1875 20.675781 24.125 Z M 20.894531 24.324219 L 19.941406 24.324219 C 19.824219 24.324219 19.730469 24.230469 19.730469 24.117188 L 19.730469 24.050781 L 20.742188 24.050781 L 20.742188 24.089844 C 20.742188 24.128906 20.773438 24.160156 20.8125 24.160156 L 21.023438 24.160156 L 21.023438 24.195312 C 21.023438 24.269531 20.964844 24.324219 20.894531 24.324219 "/><path style=" stroke:none;fill-rule:nonzero;fill:#ffffff;fill-opacity:1;" d="M 15.03125 24.089844 L 15.972656 24.089844 C 15.972656 24.148438 16.019531 24.195312 16.078125 24.195312 L 16.253906 24.195312 C 16.253906 24.246094 16.210938 24.289062 16.160156 24.289062 L 15.207031 24.289062 C 15.109375 24.289062 15.03125 24.210938 15.03125 24.117188 L 15.03125 24.089844 "/><path style=" stroke:none;fill-rule:nonzero;fill:#333333;fill-opacity:1;" d="M 15.070312 24.125 C 15.074219 24.195312 15.132812 24.253906 15.207031 24.253906 L 16.160156 24.253906 C 16.175781 24.253906 16.195312 24.246094 16.203125 24.230469 L 16.078125 24.230469 C 16.011719 24.230469 15.957031 24.1875 15.941406 24.125 Z M 16.160156 24.324219 L 15.207031 24.324219 C 15.089844 24.324219 14.996094 24.230469 14.996094 24.117188 L 14.996094 24.050781 L 16.007812 24.050781 L 16.007812 24.089844 C 16.007812 24.128906 16.039062 24.160156 16.078125 24.160156 L 16.289062 24.160156 L 16.289062 24.195312 C 16.289062 24.269531 16.230469 24.324219 16.160156 24.324219 "/><path style=" stroke:none;fill-rule:nonzero;fill:#ced5d8;fill-opacity:1;" d="M 29.492188 22.75 L 30.113281 25.03125 C 30.160156 25.199219 30.03125 25.363281 29.859375 25.363281 L 26.027344 25.363281 C 25.972656 25.363281 25.929688 25.316406 25.929688 25.261719 C 25.929688 25.207031 25.972656 25.164062 26.027344 25.164062 L 28.035156 25.164062 L 28.035156 22.75 L 29.492188 22.75 "/><path style=" stroke:none;fill-rule:nonzero;fill:#333333;fill-opacity:1;" d="M 26.027344 25.199219 C 25.992188 25.199219 25.964844 25.226562 25.964844 25.261719 C 25.964844 25.296875 25.992188 25.324219 26.027344 25.324219 L 29.859375 25.324219 C 29.929688 25.324219 29.996094 25.292969 30.039062 25.238281 C 30.082031 25.179688 30.097656 25.109375 30.078125 25.042969 L 29.464844 22.785156 L 28.070312 22.785156 L 28.070312 25.199219 Z M 29.859375 25.398438 L 26.027344 25.398438 C 25.953125 25.398438 25.894531 25.335938 25.894531 25.261719 C 25.894531 25.1875 25.953125 25.125 26.027344 25.125 L 27.996094 25.125 L 27.996094 22.714844 L 29.519531 22.714844 L 30.148438 25.023438 C 30.171875 25.113281 30.15625 25.207031 30.097656 25.28125 C 30.039062 25.355469 29.953125 25.398438 29.859375 25.398438 "/><path style=" stroke:none;fill-rule:nonzero;fill:#dee6e9;fill-opacity:1;" d="M 28.277344 25.164062 L 29.886719 25.164062 C 29.917969 25.164062 29.941406 25.132812 29.933594 25.097656 L 29.339844 22.859375 L 29.492188 22.75 L 30.113281 25.03125 C 30.160156 25.199219 30.03125 25.363281 29.859375 25.363281 L 28.277344 25.363281 L 28.277344 25.164062 "/><path style=" stroke:none;fill-rule:nonzero;fill:#333333;fill-opacity:1;" d="M 28.3125 25.324219 L 29.859375 25.324219 C 29.929688 25.324219 29.996094 25.292969 30.039062 25.238281 C 30.082031 25.179688 30.097656 25.109375 30.078125 25.042969 L 29.46875 22.808594 L 29.382812 22.875 L 29.96875 25.089844 C 29.976562 25.117188 29.972656 25.144531 29.953125 25.164062 C 29.9375 25.1875 29.914062 25.199219 29.886719 25.199219 L 28.3125 25.199219 Z M 29.859375 25.398438 L 28.242188 25.398438 L 28.242188 25.125 L 29.886719 25.125 C 29.890625 25.125 29.894531 25.125 29.898438 25.121094 C 29.898438 25.117188 29.902344 25.113281 29.898438 25.109375 L 29.296875 22.84375 L 29.511719 22.6875 L 30.148438 25.023438 C 30.171875 25.113281 30.15625 25.207031 30.097656 25.28125 C 30.039062 25.355469 29.953125 25.398438 29.859375 25.398438 "/><path style=" stroke:none;fill-rule:nonzero;fill:#ffffff;fill-opacity:1;" d="M 25.929688 25.261719 C 25.929688 25.207031 25.972656 25.164062 26.027344 25.164062 L 28.460938 25.164062 C 28.515625 25.164062 28.558594 25.207031 28.558594 25.261719 C 28.558594 25.316406 28.515625 25.363281 28.460938 25.363281 L 26.027344 25.363281 C 25.972656 25.363281 25.929688 25.316406 25.929688 25.261719 "/><path style=" stroke:none;fill-rule:nonzero;fill:#333333;fill-opacity:1;" d="M 26.027344 25.199219 C 25.992188 25.199219 25.964844 25.226562 25.964844 25.261719 C 25.964844 25.296875 25.992188 25.324219 26.027344 25.324219 L 28.460938 25.324219 C 28.496094 25.324219 28.523438 25.296875 28.523438 25.261719 C 28.523438 25.226562 28.496094 25.199219 28.460938 25.199219 Z M 28.460938 25.398438 L 26.027344 25.398438 C 25.953125 25.398438 25.894531 25.335938 25.894531 25.261719 C 25.894531 25.1875 25.953125 25.125 26.027344 25.125 L 28.460938 25.125 C 28.535156 25.125 28.597656 25.1875 28.597656 25.261719 C 28.597656 25.335938 28.535156 25.398438 28.460938 25.398438 "/><path style=" stroke:none;fill-rule:nonzero;fill:#dee6e9;fill-opacity:1;" d="M 30.96875 20.441406 L 26.644531 20.441406 C 26.441406 20.441406 26.261719 20.570312 26.195312 20.761719 L 25.277344 24.476562 L 29.625 24.476562 C 29.789062 24.476562 29.9375 24.375 29.992188 24.21875 L 31.210938 20.78125 C 31.269531 20.613281 31.144531 20.441406 30.96875 20.441406 "/><path style=" stroke:none;fill-rule:nonzero;fill:#333333;fill-opacity:1;" d="M 25.347656 24.421875 L 29.625 24.421875 C 29.765625 24.421875 29.894531 24.332031 29.9375 24.199219 L 31.15625 20.761719 C 31.179688 20.699219 31.167969 20.632812 31.132812 20.582031 C 31.09375 20.527344 31.035156 20.496094 30.96875 20.496094 L 26.644531 20.496094 C 26.464844 20.496094 26.304688 20.609375 26.246094 20.777344 Z M 29.625 24.53125 L 25.203125 24.53125 L 26.140625 20.746094 C 26.214844 20.527344 26.417969 20.386719 26.644531 20.386719 L 30.96875 20.386719 C 31.070312 20.386719 31.164062 20.433594 31.222656 20.515625 C 31.28125 20.601562 31.296875 20.703125 31.261719 20.800781 L 30.046875 24.238281 C 29.984375 24.414062 29.8125 24.53125 29.625 24.53125 "/><path style=" stroke:none;fill-rule:nonzero;fill:#58595b;fill-opacity:1;" d="M 30.792969 20.441406 L 26.46875 20.441406 C 26.265625 20.441406 26.085938 20.570312 26.015625 20.761719 L 24.820312 24.136719 C 24.761719 24.304688 24.886719 24.476562 25.0625 24.476562 L 29.378906 24.476562 C 29.585938 24.476562 29.769531 24.347656 29.839844 24.152344 L 31.035156 20.78125 C 31.09375 20.613281 30.96875 20.441406 30.792969 20.441406 "/><path style=" stroke:none;fill-rule:nonzero;fill:#333333;fill-opacity:1;" d="M 26.46875 20.496094 C 26.289062 20.496094 26.128906 20.609375 26.070312 20.777344 L 24.875 24.15625 C 24.851562 24.21875 24.859375 24.285156 24.898438 24.335938 C 24.9375 24.390625 24.996094 24.421875 25.0625 24.421875 L 29.378906 24.421875 C 29.5625 24.421875 29.726562 24.304688 29.785156 24.132812 L 30.980469 20.761719 C 31.003906 20.699219 30.992188 20.632812 30.957031 20.582031 C 30.917969 20.527344 30.859375 20.496094 30.792969 20.496094 Z M 29.378906 24.53125 L 25.0625 24.53125 C 24.960938 24.53125 24.867188 24.484375 24.808594 24.402344 C 24.746094 24.320312 24.734375 24.214844 24.769531 24.117188 L 25.964844 20.742188 C 26.039062 20.527344 26.242188 20.386719 26.46875 20.386719 L 30.792969 20.386719 C 30.894531 20.386719 30.988281 20.433594 31.046875 20.515625 C 31.105469 20.601562 31.121094 20.703125 31.085938 20.800781 L 29.894531 24.171875 C 29.816406 24.386719 29.609375 24.53125 29.378906 24.53125 "/><path style=" stroke:none;fill-rule:nonzero;fill:#ffffff;fill-opacity:1;" d="M 25.175781 24.132812 L 29.507812 24.132812 L 30.679688 20.863281 L 26.347656 20.863281 L 25.175781 24.132812 "/><path style=" stroke:none;fill-rule:nonzero;fill:#333333;fill-opacity:1;" d="M 25.257812 24.074219 L 29.46875 24.074219 L 30.601562 20.917969 L 26.386719 20.917969 Z M 29.550781 24.1875 L 25.097656 24.1875 L 26.308594 20.804688 L 30.761719 20.804688 L 29.550781 24.1875 "/><path style=" stroke:none;fill-rule:nonzero;fill:#dee6e9;fill-opacity:1;" d="M 26.40625 21.800781 L 29.960938 21.800781 L 30.0625 21.515625 L 26.507812 21.515625 L 26.40625 21.800781 "/><path style=" stroke:none;fill-rule:nonzero;fill:#dee6e9;fill-opacity:1;" d="M 26.210938 22.332031 L 29.765625 22.332031 L 29.871094 22.050781 L 26.316406 22.050781 L 26.210938 22.332031 "/><path style=" stroke:none;fill-rule:nonzero;fill:#dee6e9;fill-opacity:1;" d="M 26 22.90625 L 29.558594 22.90625 L 29.660156 22.621094 L 26.105469 22.621094 L 26 22.90625 "/><path style=" stroke:none;fill-rule:nonzero;fill:#dee6e9;fill-opacity:1;" d="M 25.828125 23.476562 L 29.347656 23.476562 L 29.453125 23.191406 L 25.929688 23.191406 L 25.828125 23.476562 "/><path style=" stroke:none;fill-rule:nonzero;fill:#ffffff;fill-opacity:1;" d="M 27.714844 24.371094 L 28.652344 24.371094 C 28.652344 24.429688 28.703125 24.476562 28.761719 24.476562 L 28.933594 24.476562 C 28.933594 24.527344 28.894531 24.570312 28.839844 24.570312 L 27.886719 24.570312 C 27.792969 24.570312 27.714844 24.492188 27.714844 24.398438 L 27.714844 24.371094 "/><path style=" stroke:none;fill-rule:nonzero;fill:#333333;fill-opacity:1;" d="M 27.75 24.40625 C 27.753906 24.476562 27.816406 24.535156 27.886719 24.535156 L 28.839844 24.535156 C 28.859375 24.535156 28.875 24.527344 28.886719 24.511719 L 28.761719 24.511719 C 28.695312 24.511719 28.636719 24.46875 28.621094 24.40625 Z M 28.839844 24.605469 L 27.886719 24.605469 C 27.773438 24.605469 27.679688 24.511719 27.679688 24.398438 L 27.679688 24.332031 L 28.691406 24.332031 L 28.691406 24.371094 C 28.691406 24.410156 28.722656 24.441406 28.761719 24.441406 L 28.972656 24.441406 L 28.972656 24.476562 C 28.972656 24.546875 28.914062 24.605469 28.839844 24.605469 "/><path style=" stroke:none;fill-rule:nonzero;fill:#ffffff;fill-opacity:1;" d="M 25.628906 24.371094 L 26.566406 24.371094 C 26.566406 24.429688 26.617188 24.476562 26.675781 24.476562 L 26.851562 24.476562 C 26.851562 24.527344 26.808594 24.570312 26.757812 24.570312 L 25.804688 24.570312 C 25.707031 24.570312 25.628906 24.492188 25.628906 24.398438 L 25.628906 24.371094 "/><path style=" stroke:none;fill-rule:nonzero;fill:#333333;fill-opacity:1;" d="M 25.664062 24.40625 C 25.667969 24.476562 25.730469 24.535156 25.804688 24.535156 L 26.757812 24.535156 C 26.773438 24.535156 26.789062 24.527344 26.800781 24.511719 L 26.675781 24.511719 C 26.609375 24.511719 26.550781 24.46875 26.535156 24.40625 Z M 26.757812 24.605469 L 25.804688 24.605469 C 25.6875 24.605469 25.59375 24.511719 25.59375 24.398438 L 25.59375 24.332031 L 26.605469 24.332031 L 26.605469 24.371094 C 26.605469 24.410156 26.636719 24.441406 26.675781 24.441406 L 26.886719 24.441406 L 26.886719 24.476562 C 26.886719 24.546875 26.828125 24.605469 26.757812 24.605469 "/><path style=" stroke:none;fill-rule:nonzero;fill:#dd5853;fill-opacity:1;" d="M 32.601562 24.53125 C 32.246094 24.53125 31.957031 24.242188 31.957031 23.886719 C 31.957031 23.535156 32.246094 23.246094 32.601562 23.246094 C 32.957031 23.246094 33.246094 23.535156 33.246094 23.886719 C 33.246094 24.242188 32.957031 24.53125 32.601562 24.53125 Z M 32.601562 22.894531 C 32.050781 22.894531 31.605469 23.339844 31.605469 23.886719 C 31.605469 24.433594 32.050781 24.882812 32.601562 24.882812 C 33.152344 24.882812 33.601562 24.433594 33.601562 23.886719 C 33.601562 23.339844 33.152344 22.894531 32.601562 22.894531 "/><path style=" stroke:none;fill-rule:nonzero;fill:#333333;fill-opacity:1;" d="M 32.601562 23.300781 C 32.277344 23.300781 32.015625 23.5625 32.015625 23.886719 C 32.015625 24.210938 32.277344 24.472656 32.601562 24.472656 C 32.925781 24.472656 33.191406 24.210938 33.191406 23.886719 C 33.191406 23.5625 32.925781 23.300781 32.601562 23.300781 Z M 32.601562 24.585938 C 32.214844 24.585938 31.902344 24.273438 31.902344 23.886719 C 31.902344 23.503906 32.214844 23.1875 32.601562 23.1875 C 32.988281 23.1875 33.304688 23.503906 33.304688 23.886719 C 33.304688 24.273438 32.988281 24.585938 32.601562 24.585938 Z M 32.601562 22.949219 C 32.082031 22.949219 31.660156 23.371094 31.660156 23.886719 C 31.660156 24.40625 32.082031 24.824219 32.601562 24.824219 C 33.121094 24.824219 33.542969 24.40625 33.542969 23.886719 C 33.542969 23.371094 33.121094 22.949219 32.601562 22.949219 Z M 32.601562 24.9375 C 32.023438 24.9375 31.550781 24.464844 31.550781 23.886719 C 31.550781 23.308594 32.023438 22.835938 32.601562 22.835938 C 33.183594 22.835938 33.65625 23.308594 33.65625 23.886719 C 33.65625 24.464844 33.183594 24.9375 32.601562 24.9375 "/><path style=" stroke:none;fill-rule:nonzero;fill:#dd5853;fill-opacity:1;" d="M 34.511719 22.628906 L 32.933594 22.628906 C 32.828125 22.628906 32.738281 22.714844 32.738281 22.824219 L 32.738281 24.742188 C 32.738281 25.0625 33 25.320312 33.320312 25.320312 L 34.125 25.320312 C 34.445312 25.320312 34.707031 25.0625 34.707031 24.742188 L 34.707031 22.824219 C 34.707031 22.714844 34.621094 22.628906 34.511719 22.628906 "/><path style=" stroke:none;fill-rule:nonzero;fill:#333333;fill-opacity:1;" d="M 32.933594 22.683594 C 32.859375 22.683594 32.796875 22.746094 32.796875 22.824219 L 32.796875 24.742188 C 32.796875 25.03125 33.03125 25.265625 33.320312 25.265625 L 34.125 25.265625 C 34.414062 25.265625 34.652344 25.03125 34.652344 24.742188 L 34.652344 22.824219 C 34.652344 22.746094 34.589844 22.683594 34.511719 22.683594 Z M 34.125 25.378906 L 33.320312 25.378906 C 32.96875 25.378906 32.683594 25.09375 32.683594 24.742188 L 32.683594 22.824219 C 32.683594 22.683594 32.796875 22.574219 32.933594 22.574219 L 34.511719 22.574219 C 34.652344 22.574219 34.761719 22.683594 34.761719 22.824219 L 34.761719 24.742188 C 34.761719 25.09375 34.476562 25.378906 34.125 25.378906 "/><path style=" stroke:none;fill-rule:nonzero;fill:#333333;fill-opacity:1;" d="M 34.707031 23.054688 L 33.46875 23.054688 L 33.46875 22.941406 L 34.707031 22.941406 L 34.707031 23.054688 "/><path style=" stroke:none;fill-rule:nonzero;fill:#333333;fill-opacity:1;" d="M 33.550781 24.503906 L 32.738281 24.503906 L 32.738281 24.394531 L 33.550781 24.394531 L 33.550781 24.503906 "/><path style=" stroke:none;fill-rule:nonzero;fill:#333333;fill-opacity:1;" d="M 34.089844 25.019531 L 32.738281 25.019531 L 32.738281 24.910156 L 34.089844 24.910156 L 34.089844 25.019531 "/><path style=" stroke:none;fill-rule:nonzero;fill:#ffffff;fill-opacity:1;" d="M 34.613281 20.96875 L 34.207031 20.96875 C 34.058594 20.96875 33.941406 20.847656 33.941406 20.703125 C 33.941406 20.554688 33.820312 20.433594 33.671875 20.433594 L 32.71875 20.433594 C 32.574219 20.433594 32.453125 20.554688 32.453125 20.703125 C 32.453125 20.847656 32.574219 20.96875 32.71875 20.96875 L 33.199219 20.96875 C 33.347656 20.96875 33.46875 21.085938 33.46875 21.234375 C 33.46875 21.382812 33.347656 21.5 33.199219 21.5 L 33.085938 21.5 C 32.9375 21.5 32.816406 21.621094 32.816406 21.769531 C 32.816406 21.914062 32.9375 22.035156 33.085938 22.035156 L 34.035156 22.035156 C 34.183594 22.035156 34.304688 21.914062 34.304688 21.769531 C 34.304688 21.621094 34.421875 21.5 34.570312 21.5 L 34.613281 21.5 C 34.757812 21.5 34.878906 21.382812 34.878906 21.234375 C 34.878906 21.085938 34.757812 20.96875 34.613281 20.96875 "/><path style=" stroke:none;fill-rule:nonzero;fill:#333333;fill-opacity:1;" d="M 33.085938 21.558594 C 32.96875 21.558594 32.875 21.652344 32.875 21.769531 C 32.875 21.882812 32.96875 21.976562 33.085938 21.976562 L 34.035156 21.976562 C 34.152344 21.976562 34.246094 21.882812 34.246094 21.769531 C 34.246094 21.589844 34.390625 21.445312 34.570312 21.445312 L 34.613281 21.445312 C 34.726562 21.445312 34.824219 21.351562 34.824219 21.234375 C 34.824219 21.117188 34.726562 21.023438 34.613281 21.023438 L 34.207031 21.023438 C 34.03125 21.023438 33.882812 20.878906 33.882812 20.703125 C 33.882812 20.585938 33.789062 20.492188 33.671875 20.492188 L 32.71875 20.492188 C 32.605469 20.492188 32.507812 20.585938 32.507812 20.703125 C 32.507812 20.816406 32.605469 20.910156 32.71875 20.910156 L 33.199219 20.910156 C 33.378906 20.910156 33.523438 21.054688 33.523438 21.234375 C 33.523438 21.414062 33.378906 21.558594 33.199219 21.558594 Z M 34.035156 22.089844 L 33.085938 22.089844 C 32.90625 22.089844 32.761719 21.945312 32.761719 21.769531 C 32.761719 21.589844 32.90625 21.445312 33.085938 21.445312 L 33.199219 21.445312 C 33.316406 21.445312 33.414062 21.351562 33.414062 21.234375 C 33.414062 21.117188 33.316406 21.023438 33.199219 21.023438 L 32.71875 21.023438 C 32.542969 21.023438 32.394531 20.878906 32.394531 20.703125 C 32.394531 20.523438 32.542969 20.378906 32.71875 20.378906 L 33.671875 20.378906 C 33.851562 20.378906 33.996094 20.523438 33.996094 20.703125 C 33.996094 20.816406 34.089844 20.910156 34.207031 20.910156 L 34.613281 20.910156 C 34.789062 20.910156 34.933594 21.054688 34.933594 21.234375 C 34.933594 21.414062 34.789062 21.558594 34.613281 21.558594 L 34.570312 21.558594 C 34.453125 21.558594 34.359375 21.652344 34.359375 21.769531 C 34.359375 21.945312 34.214844 22.089844 34.035156 22.089844 "/><path style=" stroke:none;fill-rule:nonzero;fill:#a2b7bc;fill-opacity:1;" d="M 32.144531 26.582031 L 32.144531 30.984375 L 33.308594 30.984375 L 33.308594 26.582031 L 32.144531 26.582031 "/><g clip-rule="nonzero" clip-path="url(#69dc158b0a)"><path style=" stroke:none;fill-rule:nonzero;fill:#333333;fill-opacity:1;" d="M 32.199219 30.929688 L 33.25 30.929688 L 33.25 26.636719 L 32.199219 26.636719 Z M 33.363281 31.039062 L 32.089844 31.039062 L 32.089844 26.523438 L 33.363281 26.523438 L 33.363281 31.039062 "/></g><path style=" stroke:none;fill-rule:nonzero;fill:#a2b7bc;fill-opacity:1;" d="M 27.886719 26.808594 L 35.3125 26.808594 C 35.566406 26.808594 35.769531 26.605469 35.769531 26.351562 L 27.429688 26.351562 C 27.429688 26.605469 27.632812 26.808594 27.886719 26.808594 "/><path style=" stroke:none;fill-rule:nonzero;fill:#333333;fill-opacity:1;" d="M 27.488281 26.410156 C 27.515625 26.601562 27.683594 26.75 27.886719 26.75 L 35.3125 26.75 C 35.515625 26.75 35.679688 26.601562 35.707031 26.410156 Z M 35.3125 26.863281 L 27.886719 26.863281 C 27.601562 26.863281 27.371094 26.632812 27.371094 26.351562 L 27.371094 26.296875 L 35.824219 26.296875 L 35.824219 26.351562 C 35.824219 26.632812 35.59375 26.863281 35.3125 26.863281 "/><path style=" stroke:none;fill-rule:nonzero;fill:#b6c8ce;fill-opacity:1;" d="M 26.542969 26.582031 L 26.542969 30.984375 L 27.707031 30.984375 L 27.707031 26.582031 L 26.542969 26.582031 "/><g clip-rule="nonzero" clip-path="url(#a8e4999967)"><path style=" stroke:none;fill-rule:nonzero;fill:#333333;fill-opacity:1;" d="M 26.601562 30.929688 L 27.652344 30.929688 L 27.652344 26.636719 L 26.601562 26.636719 Z M 27.765625 31.039062 L 26.488281 31.039062 L 26.488281 26.523438 L 27.765625 26.523438 L 27.765625 31.039062 "/></g><path style=" stroke:none;fill-rule:nonzero;fill:#8c6c60;fill-opacity:1;" d="M 36.800781 25.363281 L 5.160156 25.363281 C 5.085938 25.363281 5.027344 25.421875 5.027344 25.492188 L 5.027344 26.222656 C 5.027344 26.296875 5.085938 26.351562 5.160156 26.351562 L 36.800781 26.351562 C 36.871094 26.351562 36.929688 26.296875 36.929688 26.222656 L 36.929688 25.492188 C 36.929688 25.421875 36.871094 25.363281 36.800781 25.363281 "/><g clip-rule="nonzero" clip-path="url(#5241f486a2)"><path style=" stroke:none;fill-rule:nonzero;fill:#333333;fill-opacity:1;" d="M 5.160156 25.417969 C 5.117188 25.417969 5.085938 25.453125 5.085938 25.492188 L 5.085938 26.222656 C 5.085938 26.265625 5.117188 26.296875 5.160156 26.296875 L 36.800781 26.296875 C 36.839844 26.296875 36.875 26.265625 36.875 26.222656 L 36.875 25.492188 C 36.875 25.453125 36.839844 25.417969 36.800781 25.417969 Z M 36.800781 26.410156 L 5.160156 26.410156 C 5.054688 26.410156 4.972656 26.324219 4.972656 26.222656 L 4.972656 25.492188 C 4.972656 25.390625 5.054688 25.304688 5.160156 25.304688 L 36.800781 25.304688 C 36.902344 25.304688 36.988281 25.390625 36.988281 25.492188 L 36.988281 26.222656 C 36.988281 26.324219 36.902344 26.410156 36.800781 26.410156 "/></g><path style=" stroke:none;fill-rule:nonzero;fill:#9e7d6d;fill-opacity:1;" d="M 31.121094 25.363281 L 1.171875 25.363281 C 1.101562 25.363281 1.042969 25.421875 1.042969 25.492188 L 1.042969 26.222656 C 1.042969 26.296875 1.101562 26.351562 1.171875 26.351562 L 31.121094 26.351562 C 31.191406 26.351562 31.25 26.296875 31.25 26.222656 L 31.25 25.492188 C 31.25 25.421875 31.191406 25.363281 31.121094 25.363281 "/><path style=" stroke:none;fill-rule:nonzero;fill:#333333;fill-opacity:1;" d="M 1.171875 25.417969 C 1.128906 25.417969 1.097656 25.453125 1.097656 25.492188 L 1.097656 26.222656 C 1.097656 26.265625 1.128906 26.296875 1.171875 26.296875 L 31.121094 26.296875 C 31.160156 26.296875 31.195312 26.265625 31.195312 26.222656 L 31.195312 25.492188 C 31.195312 25.453125 31.160156 25.417969 31.121094 25.417969 Z M 31.121094 26.410156 L 1.171875 26.410156 C 1.070312 26.410156 0.984375 26.324219 0.984375 26.222656 L 0.984375 25.492188 C 0.984375 25.390625 1.070312 25.304688 1.171875 25.304688 L 31.121094 25.304688 C 31.222656 25.304688 31.308594 25.390625 31.308594 25.492188 L 31.308594 26.222656 C 31.308594 26.324219 31.222656 26.410156 31.121094 26.410156 "/><path style=" stroke:none;fill-rule:nonzero;fill:#b6c8ce;fill-opacity:1;" d="M 24.539062 26.808594 L 29.710938 26.808594 C 29.964844 26.808594 30.167969 26.605469 30.167969 26.351562 L 24.082031 26.351562 C 24.082031 26.605469 24.289062 26.808594 24.539062 26.808594 "/><path style=" stroke:none;fill-rule:nonzero;fill:#333333;fill-opacity:1;" d="M 24.144531 26.410156 C 24.171875 26.601562 24.339844 26.75 24.539062 26.75 L 29.710938 26.75 C 29.914062 26.75 30.082031 26.601562 30.109375 26.410156 Z M 29.710938 26.863281 L 24.539062 26.863281 C 24.257812 26.863281 24.027344 26.632812 24.027344 26.351562 L 24.027344 26.296875 L 30.226562 26.296875 L 30.226562 26.351562 C 30.226562 26.632812 29.996094 26.863281 29.710938 26.863281 "/><path style=" stroke:none;fill-rule:nonzero;fill:#a2b7bc;fill-opacity:1;" d="M 9.96875 26.582031 L 9.96875 30.984375 L 11.132812 30.984375 L 11.132812 26.582031 L 9.96875 26.582031 "/><g clip-rule="nonzero" clip-path="url(#1960c40369)"><path style=" stroke:none;fill-rule:nonzero;fill:#333333;fill-opacity:1;" d="M 10.023438 30.929688 L 11.074219 30.929688 L 11.074219 26.636719 L 10.023438 26.636719 Z M 11.1875 31.039062 L 9.910156 31.039062 L 9.910156 26.523438 L 11.1875 26.523438 L 11.1875 31.039062 "/></g><path style=" stroke:none;fill-rule:nonzero;fill:#a2b7bc;fill-opacity:1;" d="M 7.960938 26.808594 L 13.136719 26.808594 C 13.386719 26.808594 13.589844 26.605469 13.589844 26.351562 L 7.507812 26.351562 C 7.507812 26.605469 7.710938 26.808594 7.960938 26.808594 "/><path style=" stroke:none;fill-rule:nonzero;fill:#333333;fill-opacity:1;" d="M 7.566406 26.410156 C 7.59375 26.601562 7.761719 26.75 7.960938 26.75 L 13.136719 26.75 C 13.335938 26.75 13.503906 26.601562 13.53125 26.410156 Z M 13.136719 26.863281 L 7.960938 26.863281 C 7.679688 26.863281 7.449219 26.632812 7.449219 26.351562 L 7.449219 26.296875 L 13.648438 26.296875 L 13.648438 26.351562 C 13.648438 26.632812 13.417969 26.863281 13.136719 26.863281 "/><path style=" stroke:none;fill-rule:nonzero;fill:#b6c8ce;fill-opacity:1;" d="M 4.585938 26.582031 L 4.585938 30.984375 L 5.75 30.984375 L 5.75 26.582031 L 4.585938 26.582031 "/><g clip-rule="nonzero" clip-path="url(#fc11128fd3)"><path style=" stroke:none;fill-rule:nonzero;fill:#333333;fill-opacity:1;" d="M 4.640625 30.929688 L 5.691406 30.929688 L 5.691406 26.636719 L 4.640625 26.636719 Z M 5.804688 31.039062 L 4.527344 31.039062 L 4.527344 26.523438 L 5.804688 26.523438 L 5.804688 31.039062 "/></g><path style=" stroke:none;fill-rule:nonzero;fill:#b6c8ce;fill-opacity:1;" d="M 2.582031 26.808594 L 7.753906 26.808594 C 8.003906 26.808594 8.210938 26.605469 8.210938 26.351562 L 2.125 26.351562 C 2.125 26.605469 2.328125 26.808594 2.582031 26.808594 "/><path style=" stroke:none;fill-rule:nonzero;fill:#333333;fill-opacity:1;" d="M 2.183594 26.410156 C 2.210938 26.601562 2.378906 26.75 2.582031 26.75 L 7.753906 26.75 C 7.953125 26.75 8.121094 26.601562 8.148438 26.410156 Z M 7.753906 26.863281 L 2.582031 26.863281 C 2.296875 26.863281 2.066406 26.632812 2.066406 26.351562 L 2.066406 26.296875 L 8.265625 26.296875 L 8.265625 26.351562 C 8.265625 26.632812 8.035156 26.863281 7.753906 26.863281 "/><path style=" stroke:none;fill-rule:nonzero;fill:#333333;fill-opacity:1;" d="M 16.128906 15.308594 L 16.019531 15.28125 L 16.070312 15.089844 L 16.179688 15.121094 L 16.128906 15.308594 "/><path style=" stroke:none;fill-rule:nonzero;fill:#333333;fill-opacity:1;" d="M 16.472656 14.058594 L 16.363281 14.027344 L 16.460938 13.675781 L 16.570312 13.703125 Z M 16.277344 14.765625 L 16.167969 14.738281 L 16.265625 14.382812 L 16.375 14.414062 L 16.277344 14.765625 "/><path style=" stroke:none;fill-rule:nonzero;fill:#333333;fill-opacity:1;" d="M 16.667969 13.351562 L 16.558594 13.320312 L 16.609375 13.128906 C 16.617188 13.105469 16.640625 13.089844 16.664062 13.089844 L 16.863281 13.089844 L 16.863281 13.203125 L 16.707031 13.203125 L 16.667969 13.351562 "/><path style=" stroke:none;fill-rule:nonzero;fill:#333333;fill-opacity:1;" d="M 17.632812 13.203125 L 17.246094 13.203125 L 17.246094 13.089844 L 17.632812 13.089844 Z M 18.40625 13.203125 L 18.019531 13.203125 L 18.019531 13.089844 L 18.40625 13.089844 Z M 19.179688 13.203125 L 18.792969 13.203125 L 18.792969 13.089844 L 19.179688 13.089844 Z M 19.953125 13.203125 L 19.566406 13.203125 L 19.566406 13.089844 L 19.953125 13.089844 Z M 20.726562 13.203125 L 20.339844 13.203125 L 20.339844 13.089844 L 20.726562 13.089844 Z M 21.496094 13.203125 L 21.109375 13.203125 L 21.109375 13.089844 L 21.496094 13.089844 Z M 22.269531 13.203125 L 21.882812 13.203125 L 21.882812 13.089844 L 22.269531 13.089844 Z M 23.042969 13.203125 L 22.65625 13.203125 L 22.65625 13.089844 L 23.042969 13.089844 Z M 23.816406 13.203125 L 23.429688 13.203125 L 23.429688 13.089844 L 23.816406 13.089844 Z M 24.585938 13.203125 L 24.203125 13.203125 L 24.203125 13.089844 L 24.585938 13.089844 Z M 25.359375 13.203125 L 24.972656 13.203125 L 24.972656 13.089844 L 25.359375 13.089844 Z M 26.132812 13.203125 L 25.746094 13.203125 L 25.746094 13.089844 L 26.132812 13.089844 Z M 26.90625 13.203125 L 26.519531 13.203125 L 26.519531 13.089844 L 26.90625 13.089844 Z M 27.679688 13.203125 L 27.292969 13.203125 L 27.292969 13.089844 L 27.679688 13.089844 Z M 28.449219 13.203125 L 28.066406 13.203125 L 28.066406 13.089844 L 28.449219 13.089844 Z M 29.222656 13.203125 L 28.835938 13.203125 L 28.835938 13.089844 L 29.222656 13.089844 Z M 29.996094 13.203125 L 29.609375 13.203125 L 29.609375 13.089844 L 29.996094 13.089844 L 29.996094 13.203125 "/><path style=" stroke:none;fill-rule:nonzero;fill:#333333;fill-opacity:1;" d="M 30.582031 13.351562 L 30.472656 13.320312 L 30.503906 13.203125 L 30.382812 13.203125 L 30.382812 13.089844 L 30.578125 13.089844 C 30.597656 13.089844 30.613281 13.097656 30.625 13.109375 C 30.636719 13.125 30.636719 13.144531 30.632812 13.160156 L 30.582031 13.351562 "/><path style=" stroke:none;fill-rule:nonzero;fill:#333333;fill-opacity:1;" d="M 30.363281 14.113281 L 30.257812 14.085938 L 30.363281 13.703125 L 30.472656 13.734375 Z M 30.148438 14.878906 L 30.039062 14.851562 L 30.148438 14.46875 L 30.257812 14.496094 Z M 29.933594 15.648438 L 29.824219 15.617188 L 29.933594 15.234375 L 30.039062 15.261719 Z M 29.71875 16.410156 L 29.609375 16.382812 L 29.714844 16 L 29.824219 16.027344 Z M 29.5 17.175781 L 29.394531 17.148438 L 29.5 16.765625 L 29.609375 16.792969 Z M 29.285156 17.941406 L 29.175781 17.914062 L 29.285156 17.53125 L 29.394531 17.558594 L 29.285156 17.941406 "/><path style=" stroke:none;fill-rule:nonzero;fill:#333333;fill-opacity:1;" d="M 29.125 18.515625 L 29.015625 18.484375 L 29.070312 18.296875 L 29.175781 18.324219 L 29.125 18.515625 "/><path style=" stroke:none;fill-rule:nonzero;fill:#333333;fill-opacity:1;" d="M 22.648438 16.480469 L 22.539062 16.449219 L 22.59375 16.257812 L 22.703125 16.292969 L 22.648438 16.480469 "/><path style=" stroke:none;fill-rule:nonzero;fill:#333333;fill-opacity:1;" d="M 23.519531 12.652344 L 23.515625 12.234375 L 23.628906 12.234375 L 23.632812 12.652344 Z M 23.539062 13.488281 L 23.433594 13.457031 L 23.527344 13.136719 L 23.527344 13.070312 L 23.640625 13.070312 L 23.640625 13.144531 C 23.640625 13.148438 23.640625 13.15625 23.636719 13.160156 Z M 23.300781 14.289062 L 23.191406 14.257812 L 23.3125 13.855469 L 23.421875 13.890625 Z M 23.0625 15.089844 L 22.953125 15.058594 L 23.074219 14.65625 L 23.183594 14.691406 Z M 22.824219 15.890625 L 22.714844 15.859375 L 22.835938 15.457031 L 22.941406 15.492188 L 22.824219 15.890625 "/><path style=" stroke:none;fill-rule:nonzero;fill:#333333;fill-opacity:1;" d="M 23.507812 11.816406 L 23.507812 11.621094 L 23.617188 11.621094 L 23.621094 11.816406 L 23.507812 11.816406 "/><path style=" stroke:none;fill-rule:nonzero;fill:#add9e3;fill-opacity:1;" d="M 26.460938 11.574219 L 20.355469 11.574219 L 20.355469 11.558594 C 19.589844 11.449219 19.003906 10.792969 19.003906 10 C 19.003906 9.128906 19.710938 8.425781 20.585938 8.425781 C 20.644531 8.425781 20.703125 8.429688 20.757812 8.433594 C 20.757812 8.410156 20.757812 8.390625 20.757812 8.367188 C 20.757812 7.109375 21.78125 6.089844 23.042969 6.089844 C 24.304688 6.089844 25.328125 7.109375 25.328125 8.367188 C 25.328125 8.464844 25.320312 8.558594 25.308594 8.65625 C 25.613281 8.375 26.015625 8.203125 26.460938 8.203125 C 27.398438 8.203125 28.15625 8.957031 28.15625 9.890625 C 28.15625 10.820312 27.398438 11.574219 26.460938 11.574219 "/><path style=" stroke:none;fill-rule:nonzero;fill:#333333;fill-opacity:1;" d="M 20.398438 11.511719 L 26.460938 11.511719 C 27.359375 11.511719 28.089844 10.785156 28.089844 9.890625 C 28.089844 8.996094 27.359375 8.269531 26.460938 8.269531 C 26.050781 8.269531 25.65625 8.421875 25.355469 8.703125 C 25.335938 8.71875 25.304688 8.722656 25.28125 8.710938 C 25.257812 8.699219 25.242188 8.671875 25.246094 8.648438 C 25.257812 8.550781 25.265625 8.457031 25.265625 8.367188 C 25.265625 7.144531 24.269531 6.152344 23.042969 6.152344 C 21.816406 6.152344 20.820312 7.144531 20.820312 8.367188 C 20.820312 8.382812 20.820312 8.398438 20.820312 8.414062 L 20.824219 8.433594 C 20.824219 8.449219 20.816406 8.46875 20.800781 8.480469 C 20.789062 8.492188 20.769531 8.5 20.75 8.496094 C 20.695312 8.492188 20.640625 8.488281 20.585938 8.488281 C 19.75 8.488281 19.066406 9.167969 19.066406 10 C 19.066406 10.746094 19.625 11.386719 20.363281 11.496094 C 20.378906 11.496094 20.390625 11.503906 20.398438 11.511719 Z M 26.460938 11.640625 L 20.355469 11.640625 C 20.335938 11.640625 20.316406 11.632812 20.304688 11.617188 C 19.523438 11.484375 18.9375 10.796875 18.9375 10 C 18.9375 9.097656 19.675781 8.359375 20.585938 8.359375 C 20.621094 8.359375 20.65625 8.363281 20.691406 8.363281 C 20.695312 7.074219 21.746094 6.023438 23.042969 6.023438 C 24.339844 6.023438 25.394531 7.074219 25.394531 8.367188 C 25.394531 8.410156 25.390625 8.457031 25.390625 8.503906 C 25.695312 8.269531 26.070312 8.140625 26.460938 8.140625 C 27.429688 8.140625 28.21875 8.925781 28.21875 9.890625 C 28.21875 10.855469 27.429688 11.640625 26.460938 11.640625 "/><path style=" stroke:none;fill-rule:nonzero;fill:#333333;fill-opacity:1;" d="M 23.757812 11.621094 C 23.757812 11.726562 23.671875 11.816406 23.5625 11.816406 C 23.453125 11.816406 23.367188 11.726562 23.367188 11.621094 C 23.367188 11.511719 23.453125 11.425781 23.5625 11.425781 C 23.671875 11.425781 23.757812 11.511719 23.757812 11.621094 "/><path style=" stroke:none;fill-rule:nonzero;fill:#333333;fill-opacity:1;" d="M 19.203125 7.660156 L 16.996094 7.660156 L 16.996094 7.546875 L 19.203125 7.546875 L 19.203125 7.660156 "/><g clip-rule="nonzero" clip-path="url(#73102f5472)"><path style=" stroke:none;fill-rule:nonzero;fill:#333333;fill-opacity:1;" d="M 21.085938 5.988281 L 18.878906 5.988281 L 18.878906 5.875 L 21.085938 5.875 L 21.085938 5.988281 "/></g><path style=" stroke:none;fill-rule:nonzero;fill:#333333;fill-opacity:1;" d="M 19.980469 6.855469 L 15.09375 6.855469 L 15.09375 6.746094 L 19.980469 6.746094 L 19.980469 6.855469 "/><path style=" stroke:none;fill-rule:nonzero;fill:#3d779b;fill-opacity:1;" d="M 7.734375 30.984375 L 10.703125 30.984375 C 9.1875 29.710938 6.15625 29.605469 6.15625 29.605469 L 7.734375 30.984375 "/><g clip-rule="nonzero" clip-path="url(#46f62679c5)"><path style=" stroke:none;fill-rule:nonzero;fill:#333333;fill-opacity:1;" d="M 7.753906 30.929688 L 10.542969 30.929688 C 9.234375 29.933594 6.945312 29.714844 6.316406 29.671875 Z M 10.855469 31.039062 L 7.714844 31.039062 L 6 29.546875 L 6.160156 29.550781 C 6.191406 29.550781 9.226562 29.667969 10.738281 30.941406 L 10.855469 31.039062 "/></g><path style=" stroke:none;fill-rule:nonzero;fill:#58595b;fill-opacity:1;" d="M 21.300781 24.625 L 20.121094 24.625 C 19.734375 24.625 19.417969 24.941406 19.417969 25.328125 L 22.21875 25.328125 L 22.085938 25.085938 C 21.925781 24.804688 21.625 24.625 21.300781 24.625 "/><path style=" stroke:none;fill-rule:nonzero;fill:#333333;fill-opacity:1;" d="M 19.476562 25.273438 L 22.125 25.273438 L 22.035156 25.113281 C 21.886719 24.847656 21.605469 24.683594 21.300781 24.683594 L 20.121094 24.683594 C 19.78125 24.683594 19.503906 24.941406 19.476562 25.273438 Z M 22.316406 25.382812 L 19.359375 25.382812 L 19.359375 25.328125 C 19.359375 24.910156 19.703125 24.570312 20.121094 24.570312 L 21.300781 24.570312 C 21.644531 24.570312 21.964844 24.757812 22.132812 25.058594 L 22.316406 25.382812 "/><path style=" stroke:none;fill-rule:nonzero;fill:#ffffff;fill-opacity:1;" d="M 21.730469 24.734375 C 21.730469 24.566406 21.632812 24.414062 21.480469 24.34375 L 20.644531 24.054688 L 19.660156 23.992188 L 18.21875 24.292969 L 18.964844 25.242188 L 20.792969 25.253906 C 20.949219 25.253906 21.089844 25.164062 21.152344 25.019531 L 21.660156 25.121094 C 21.730469 25.132812 21.800781 25.101562 21.835938 25.039062 C 21.867188 24.980469 21.863281 24.910156 21.824219 24.855469 L 21.730469 24.734375 "/><path style=" stroke:none;fill-rule:nonzero;fill:#333333;fill-opacity:1;" d="M 18.992188 25.183594 L 20.792969 25.199219 L 20.796875 25.199219 C 20.929688 25.199219 21.046875 25.121094 21.101562 25 L 21.121094 24.957031 L 21.671875 25.066406 C 21.71875 25.074219 21.765625 25.050781 21.789062 25.011719 C 21.808594 24.972656 21.804688 24.925781 21.777344 24.890625 L 21.671875 24.753906 L 21.671875 24.734375 C 21.671875 24.589844 21.589844 24.457031 21.460938 24.394531 L 20.632812 24.109375 L 19.664062 24.050781 L 18.320312 24.328125 Z M 20.796875 25.308594 L 20.792969 25.308594 L 18.933594 25.296875 L 18.121094 24.257812 L 19.65625 23.9375 L 20.660156 24.003906 L 21.503906 24.292969 C 21.667969 24.371094 21.777344 24.535156 21.785156 24.714844 L 21.867188 24.824219 C 21.921875 24.894531 21.929688 24.988281 21.886719 25.066406 C 21.839844 25.148438 21.742188 25.195312 21.648438 25.175781 L 21.183594 25.085938 C 21.105469 25.222656 20.957031 25.308594 20.796875 25.308594 "/><path style=" stroke:none;fill-rule:nonzero;fill:#ffffff;fill-opacity:1;" d="M 12.046875 12.082031 L 9.78125 11.664062 C 9.207031 11.5625 8.664062 11.964844 8.601562 12.542969 L 8.21875 16.066406 L 7.789062 17.800781 L 7.429688 18.847656 L 10.132812 18.640625 L 10.640625 18.09375 L 10.632812 17.457031 L 10.96875 17.570312 C 11.308594 17.699219 11.691406 17.542969 11.839844 17.210938 L 12.445312 15.851562 C 12.472656 15.789062 12.492188 15.726562 12.5 15.65625 L 12.722656 13.960938 C 13.066406 12.535156 12.625 12.1875 12.046875 12.082031 "/><path style=" stroke:none;fill-rule:nonzero;fill:#333333;fill-opacity:1;" d="M 9.597656 11.703125 C 9.394531 11.703125 9.199219 11.769531 9.035156 11.894531 C 8.820312 12.050781 8.6875 12.285156 8.65625 12.546875 L 8.273438 16.082031 L 7.84375 17.8125 L 7.511719 18.785156 L 10.105469 18.585938 L 10.585938 18.074219 L 10.574219 17.378906 L 10.988281 17.515625 C 11.300781 17.636719 11.652344 17.492188 11.789062 17.1875 L 12.394531 15.832031 C 12.421875 15.773438 12.4375 15.710938 12.445312 15.648438 L 12.667969 13.949219 C 12.835938 13.25 12.828125 12.769531 12.640625 12.480469 C 12.523438 12.296875 12.332031 12.1875 12.039062 12.136719 L 9.773438 11.722656 C 9.714844 11.710938 9.65625 11.703125 9.597656 11.703125 Z M 7.347656 18.910156 L 7.734375 17.78125 L 8.164062 16.058594 L 8.546875 12.535156 C 8.578125 12.242188 8.726562 11.980469 8.964844 11.800781 C 9.207031 11.625 9.5 11.554688 9.792969 11.609375 L 12.058594 12.023438 C 12.382812 12.085938 12.597656 12.210938 12.734375 12.417969 C 12.941406 12.734375 12.953125 13.242188 12.777344 13.972656 L 12.558594 15.664062 C 12.546875 15.738281 12.527344 15.808594 12.496094 15.875 L 11.890625 17.234375 C 11.730469 17.59375 11.316406 17.765625 10.949219 17.621094 L 10.6875 17.535156 L 10.699219 18.117188 L 10.160156 18.695312 L 10.136719 18.699219 L 7.347656 18.910156 "/><path style=" stroke:none;fill-rule:nonzero;fill:#ffffff;fill-opacity:1;" d="M 14.222656 17.34375 C 14.136719 17.308594 14.035156 17.363281 14.015625 17.457031 L 13.828125 18.40625 L 13.695312 18.691406 C 13.566406 18.972656 13.570312 19.292969 13.703125 19.566406 L 13.828125 19.820312 L 12.4375 21.828125 L 13.753906 22.117188 L 15.085938 20.15625 C 15.261719 20.15625 15.421875 20.078125 15.53125 19.945312 L 16.332031 18.945312 L 15.433594 18.292969 L 17.320312 17.136719 C 17.375 17.09375 17.382812 17.015625 17.335938 16.964844 C 17.230469 16.847656 17.0625 16.820312 16.925781 16.898438 L 14.328125 18.339844 L 14.398438 17.632812 C 14.414062 17.507812 14.339844 17.390625 14.222656 17.34375 "/><path style=" stroke:none;fill-rule:nonzero;fill:#333333;fill-opacity:1;" d="M 12.53125 21.792969 L 13.730469 22.054688 L 15.042969 20.125 C 15.050781 20.109375 15.070312 20.101562 15.085938 20.101562 C 15.246094 20.101562 15.390625 20.03125 15.488281 19.910156 L 16.25 18.953125 L 15.398438 18.339844 C 15.382812 18.328125 15.375 18.308594 15.375 18.289062 C 15.378906 18.273438 15.386719 18.253906 15.402344 18.246094 L 17.289062 17.089844 C 17.300781 17.078125 17.308594 17.0625 17.308594 17.046875 C 17.3125 17.03125 17.304688 17.011719 17.292969 17 C 17.207031 16.90625 17.066406 16.882812 16.957031 16.949219 L 14.355469 18.390625 C 14.335938 18.398438 14.316406 18.398438 14.296875 18.386719 C 14.28125 18.375 14.269531 18.355469 14.273438 18.335938 L 14.34375 17.625 C 14.355469 17.527344 14.296875 17.433594 14.203125 17.398438 C 14.175781 17.386719 14.144531 17.386719 14.121094 17.402344 C 14.09375 17.414062 14.078125 17.441406 14.070312 17.46875 L 13.882812 18.417969 L 13.878906 18.429688 L 13.746094 18.71875 C 13.625 18.980469 13.628906 19.28125 13.753906 19.542969 L 13.878906 19.792969 C 13.886719 19.8125 13.886719 19.832031 13.875 19.851562 Z M 13.753906 22.171875 L 13.742188 22.171875 L 12.425781 21.882812 C 12.40625 21.878906 12.390625 21.867188 12.382812 21.847656 C 12.375 21.832031 12.378906 21.8125 12.390625 21.796875 L 13.761719 19.8125 L 13.652344 19.589844 C 13.511719 19.300781 13.507812 18.964844 13.644531 18.667969 L 13.773438 18.390625 L 13.960938 17.445312 C 13.972656 17.386719 14.011719 17.332031 14.066406 17.304688 C 14.121094 17.273438 14.1875 17.269531 14.246094 17.292969 C 14.382812 17.347656 14.472656 17.488281 14.457031 17.636719 L 14.394531 18.238281 L 16.898438 16.847656 C 17.058594 16.757812 17.253906 16.789062 17.378906 16.925781 C 17.410156 16.960938 17.425781 17.007812 17.421875 17.058594 C 17.417969 17.105469 17.394531 17.152344 17.355469 17.179688 L 17.347656 17.183594 L 15.535156 18.296875 L 16.363281 18.898438 C 16.375 18.90625 16.382812 18.921875 16.386719 18.9375 C 16.386719 18.953125 16.382812 18.96875 16.375 18.980469 L 15.574219 19.980469 C 15.460938 20.121094 15.296875 20.203125 15.117188 20.210938 L 13.800781 22.148438 C 13.789062 22.164062 13.773438 22.171875 13.753906 22.171875 "/><path style=" stroke:none;fill-rule:nonzero;fill:#e27960;fill-opacity:1;" d="M 13.414062 20.355469 L 14.714844 21.34375 L 11.816406 25.363281 L 10.136719 25.363281 L 8.839844 22.175781 L 10.015625 19.378906 L 12.015625 22.175781 L 13.414062 20.355469 "/><path style=" stroke:none;fill-rule:nonzero;fill:#333333;fill-opacity:1;" d="M 10.175781 25.304688 L 11.789062 25.304688 L 14.640625 21.355469 L 13.421875 20.433594 L 12.015625 22.273438 L 10.03125 19.496094 L 8.902344 22.179688 Z M 11.847656 25.417969 L 10.097656 25.417969 L 8.78125 22.175781 L 10.003906 19.265625 L 12.019531 22.082031 L 13.402344 20.277344 L 14.792969 21.332031 L 14.761719 21.378906 L 11.847656 25.417969 "/><path style=" stroke:none;fill-rule:nonzero;fill:#333333;fill-opacity:1;" d="M 14.765625 19.707031 L 14.664062 19.65625 C 14.738281 19.507812 14.648438 18.84375 14.421875 18.621094 L 14.5 18.542969 C 14.664062 18.699219 14.742188 19.019531 14.765625 19.148438 C 14.800781 19.332031 14.824219 19.589844 14.765625 19.707031 "/><path style=" stroke:none;fill-rule:nonzero;fill:#ffffff;fill-opacity:1;" d="M 15.503906 19.378906 L 14.257812 19.378906 C 14.097656 19.378906 14.015625 19.25 14.070312 19.09375 L 14.90625 16.671875 C 14.960938 16.511719 15.136719 16.382812 15.296875 16.382812 L 16.542969 16.382812 C 16.703125 16.382812 16.785156 16.511719 16.730469 16.671875 L 15.894531 19.09375 C 15.839844 19.25 15.664062 19.378906 15.503906 19.378906 "/><path style=" stroke:none;fill-rule:nonzero;fill:#333333;fill-opacity:1;" d="M 15.296875 16.441406 C 15.160156 16.441406 15.003906 16.554688 14.957031 16.691406 L 14.121094 19.109375 C 14.101562 19.171875 14.105469 19.230469 14.132812 19.269531 C 14.160156 19.304688 14.203125 19.324219 14.257812 19.324219 L 15.503906 19.324219 C 15.640625 19.324219 15.796875 19.210938 15.84375 19.074219 L 16.679688 16.652344 C 16.699219 16.589844 16.695312 16.535156 16.667969 16.496094 C 16.640625 16.460938 16.597656 16.441406 16.542969 16.441406 Z M 15.503906 19.4375 L 14.257812 19.4375 C 14.167969 19.4375 14.089844 19.398438 14.042969 19.335938 C 13.992188 19.265625 13.984375 19.171875 14.015625 19.074219 L 14.851562 16.652344 C 14.914062 16.472656 15.109375 16.328125 15.296875 16.328125 L 16.542969 16.328125 C 16.632812 16.328125 16.710938 16.363281 16.757812 16.429688 C 16.808594 16.5 16.816406 16.59375 16.785156 16.691406 L 15.949219 19.109375 C 15.886719 19.292969 15.691406 19.4375 15.503906 19.4375 "/><path style=" stroke:none;fill-rule:nonzero;fill:#58595b;fill-opacity:1;" d="M 15.28125 19.378906 L 14.035156 19.378906 C 13.875 19.378906 13.789062 19.25 13.84375 19.09375 L 14.679688 16.671875 C 14.734375 16.511719 14.910156 16.382812 15.070312 16.382812 L 16.316406 16.382812 C 16.476562 16.382812 16.5625 16.511719 16.507812 16.671875 L 15.667969 19.09375 C 15.613281 19.25 15.441406 19.378906 15.28125 19.378906 "/><path style=" stroke:none;fill-rule:nonzero;fill:#333333;fill-opacity:1;" d="M 15.070312 16.441406 C 14.933594 16.441406 14.78125 16.554688 14.734375 16.691406 L 13.898438 19.109375 C 13.875 19.171875 13.878906 19.230469 13.90625 19.269531 C 13.933594 19.304688 13.976562 19.324219 14.035156 19.324219 L 15.28125 19.324219 C 15.414062 19.324219 15.570312 19.210938 15.617188 19.074219 L 16.453125 16.652344 C 16.472656 16.589844 16.46875 16.535156 16.441406 16.496094 C 16.417969 16.460938 16.371094 16.441406 16.316406 16.441406 Z M 15.28125 19.4375 L 14.035156 19.4375 C 13.941406 19.4375 13.863281 19.398438 13.816406 19.335938 C 13.765625 19.265625 13.757812 19.171875 13.789062 19.074219 L 14.625 16.652344 C 14.691406 16.472656 14.882812 16.328125 15.070312 16.328125 L 16.316406 16.328125 C 16.410156 16.328125 16.488281 16.363281 16.535156 16.429688 C 16.582031 16.5 16.59375 16.59375 16.558594 16.691406 L 15.722656 19.109375 C 15.660156 19.292969 15.464844 19.4375 15.28125 19.4375 "/><path style=" stroke:none;fill-rule:nonzero;fill:#ffffff;fill-opacity:1;" d="M 15.441406 19.015625 L 14.011719 19.015625 L 14.796875 16.746094 L 16.222656 16.746094 L 15.441406 19.015625 "/><path style=" stroke:none;fill-rule:nonzero;fill:#333333;fill-opacity:1;" d="M 14.09375 18.960938 L 15.398438 18.960938 L 16.144531 16.804688 L 14.835938 16.804688 Z M 15.480469 19.074219 L 13.933594 19.074219 L 14.757812 16.691406 L 16.304688 16.691406 L 15.480469 19.074219 "/><path style=" stroke:none;fill-rule:nonzero;fill:#dee6e9;fill-opacity:1;" d="M 14.757812 17.421875 L 15.773438 17.421875 L 15.875 17.132812 L 14.859375 17.132812 L 14.757812 17.421875 "/><path style=" stroke:none;fill-rule:nonzero;fill:#dee6e9;fill-opacity:1;" d="M 14.53125 18.082031 L 15.546875 18.082031 L 15.644531 17.792969 L 14.632812 17.792969 L 14.53125 18.082031 "/><path style=" stroke:none;fill-rule:nonzero;fill:#dee6e9;fill-opacity:1;" d="M 14.316406 18.699219 L 15.332031 18.699219 L 15.433594 18.40625 L 14.417969 18.40625 L 14.316406 18.699219 "/><path style=" stroke:none;fill-rule:nonzero;fill:#ffffff;fill-opacity:1;" d="M 15.796875 18.066406 C 15.761719 17.960938 15.816406 17.847656 15.921875 17.8125 L 16.652344 17.5625 C 16.660156 17.558594 16.675781 17.5625 16.679688 17.574219 L 16.738281 17.746094 C 16.773438 17.851562 16.71875 17.964844 16.613281 18 L 16.054688 18.191406 C 15.949219 18.226562 15.835938 18.171875 15.796875 18.066406 "/><path style=" stroke:none;fill-rule:nonzero;fill:#333333;fill-opacity:1;" d="M 16.625 17.59375 Z M 16.636719 17.625 L 15.941406 17.863281 C 15.867188 17.890625 15.824219 17.972656 15.851562 18.050781 C 15.863281 18.085938 15.890625 18.117188 15.925781 18.132812 C 15.960938 18.148438 16 18.152344 16.035156 18.140625 L 16.59375 17.949219 C 16.628906 17.933594 16.660156 17.910156 16.675781 17.875 C 16.695312 17.839844 16.695312 17.800781 16.683594 17.761719 Z M 15.988281 18.257812 C 15.949219 18.257812 15.910156 18.25 15.875 18.234375 C 15.8125 18.203125 15.765625 18.152344 15.746094 18.085938 C 15.699219 17.953125 15.769531 17.804688 15.90625 17.757812 L 16.632812 17.507812 C 16.671875 17.496094 16.71875 17.515625 16.730469 17.558594 L 16.789062 17.726562 C 16.8125 17.792969 16.808594 17.863281 16.777344 17.921875 C 16.75 17.984375 16.695312 18.03125 16.628906 18.054688 L 16.074219 18.246094 C 16.046875 18.253906 16.015625 18.257812 15.988281 18.257812 "/><path style=" stroke:none;fill-rule:nonzero;fill:#ffffff;fill-opacity:1;" d="M 15.695312 18.992188 C 15.660156 18.886719 15.71875 18.773438 15.824219 18.738281 L 16.230469 18.589844 C 16.328125 18.554688 16.429688 18.640625 16.40625 18.746094 L 16.382812 18.839844 C 16.367188 18.921875 16.304688 18.988281 16.222656 19.015625 L 15.949219 19.121094 C 15.84375 19.15625 15.730469 19.097656 15.695312 18.992188 "/><path style=" stroke:none;fill-rule:nonzero;fill:#333333;fill-opacity:1;" d="M 16.277344 18.628906 C 16.265625 18.628906 16.257812 18.632812 16.246094 18.636719 L 15.839844 18.785156 C 15.800781 18.796875 15.769531 18.824219 15.75 18.859375 C 15.730469 18.898438 15.726562 18.9375 15.742188 18.976562 C 15.765625 19.058594 15.855469 19.101562 15.933594 19.078125 L 16.207031 18.96875 C 16.273438 18.949219 16.324219 18.894531 16.335938 18.828125 L 16.359375 18.734375 C 16.367188 18.703125 16.355469 18.671875 16.332031 18.652344 C 16.316406 18.636719 16.296875 18.628906 16.277344 18.628906 Z M 15.886719 19.179688 C 15.78125 19.179688 15.683594 19.113281 15.648438 19.007812 C 15.628906 18.945312 15.632812 18.875 15.664062 18.816406 C 15.695312 18.757812 15.746094 18.714844 15.808594 18.695312 L 16.214844 18.542969 C 16.277344 18.523438 16.34375 18.535156 16.394531 18.578125 C 16.445312 18.625 16.46875 18.691406 16.453125 18.753906 L 16.429688 18.851562 C 16.410156 18.949219 16.335938 19.03125 16.238281 19.0625 L 15.964844 19.167969 C 15.941406 19.175781 15.914062 19.179688 15.886719 19.179688 "/><path style=" stroke:none;fill-rule:nonzero;fill:#ffffff;fill-opacity:1;" d="M 15.722656 18.527344 C 15.691406 18.417969 15.75 18.308594 15.855469 18.273438 L 16.429688 18.089844 C 16.492188 18.070312 16.5625 18.105469 16.585938 18.171875 L 16.609375 18.246094 C 16.640625 18.351562 16.582031 18.464844 16.476562 18.496094 L 15.976562 18.65625 C 15.871094 18.691406 15.757812 18.632812 15.722656 18.527344 "/><path style=" stroke:none;fill-rule:nonzero;fill:#333333;fill-opacity:1;" d="M 16.464844 18.132812 C 16.457031 18.132812 16.449219 18.132812 16.441406 18.136719 L 15.871094 18.320312 C 15.789062 18.34375 15.742188 18.429688 15.769531 18.511719 C 15.792969 18.59375 15.878906 18.636719 15.960938 18.613281 L 16.460938 18.449219 C 16.5 18.4375 16.53125 18.410156 16.550781 18.375 C 16.570312 18.339844 16.574219 18.296875 16.5625 18.257812 L 16.539062 18.183594 C 16.527344 18.152344 16.5 18.132812 16.464844 18.132812 Z M 15.914062 18.714844 C 15.875 18.714844 15.835938 18.707031 15.800781 18.6875 C 15.742188 18.65625 15.695312 18.605469 15.675781 18.539062 C 15.636719 18.410156 15.710938 18.269531 15.839844 18.226562 L 16.414062 18.042969 C 16.503906 18.015625 16.601562 18.066406 16.628906 18.15625 L 16.652344 18.230469 C 16.671875 18.292969 16.667969 18.363281 16.636719 18.421875 C 16.605469 18.480469 16.554688 18.523438 16.488281 18.542969 L 15.992188 18.703125 C 15.964844 18.710938 15.941406 18.714844 15.914062 18.714844 "/><path style=" stroke:none;fill-rule:nonzero;fill:#ed8366;fill-opacity:1;" d="M 5.328125 22.035156 C 5.3125 23.128906 5.066406 24.222656 5.148438 25.3125 L 5.246094 28.105469 L 11.484375 28.105469 L 11.488281 27.390625 L 11.511719 24.792969 L 12.175781 22.621094 L 12.582031 18.613281 L 10.640625 18.09375 C 10.640625 18.09375 9.605469 18.523438 8.628906 18.328125 C 7.714844 18.148438 7.789062 17.800781 7.789062 17.800781 L 6.953125 17.988281 C 5.359375 18.273438 5.328125 22.035156 5.328125 22.035156 "/><path style=" stroke:none;fill-rule:nonzero;fill:#333333;fill-opacity:1;" d="M 5.300781 28.050781 L 11.425781 28.050781 L 11.453125 24.792969 C 11.453125 24.789062 11.457031 24.78125 11.457031 24.777344 L 12.121094 22.609375 L 12.519531 18.65625 L 10.644531 18.15625 C 10.5 18.210938 9.542969 18.566406 8.617188 18.382812 C 8.183594 18.296875 7.90625 18.164062 7.785156 17.984375 C 7.757812 17.941406 7.742188 17.902344 7.738281 17.867188 L 6.96875 18.042969 C 6.527344 18.125 5.933594 18.546875 5.597656 20.128906 C 5.394531 21.089844 5.382812 22.027344 5.382812 22.035156 C 5.378906 22.492188 5.332031 22.953125 5.285156 23.398438 C 5.222656 24.027344 5.15625 24.671875 5.207031 25.308594 Z M 11.484375 28.164062 L 5.246094 28.164062 C 5.214844 28.164062 5.191406 28.136719 5.191406 28.109375 L 5.09375 25.3125 C 5.042969 24.671875 5.109375 24.019531 5.175781 23.386719 C 5.21875 22.945312 5.265625 22.484375 5.269531 22.035156 C 5.269531 22.015625 5.28125 21.070312 5.488281 20.109375 C 5.769531 18.789062 6.257812 18.058594 6.945312 17.933594 L 7.777344 17.746094 C 7.796875 17.738281 7.816406 17.746094 7.828125 17.757812 C 7.84375 17.773438 7.847656 17.792969 7.84375 17.8125 C 7.84375 17.8125 7.808594 18.109375 8.640625 18.273438 C 9.589844 18.464844 10.609375 18.046875 10.621094 18.042969 C 10.632812 18.039062 10.644531 18.039062 10.65625 18.042969 L 12.597656 18.558594 C 12.625 18.566406 12.640625 18.589844 12.636719 18.617188 L 12.230469 22.628906 L 12.230469 22.636719 L 11.566406 24.800781 L 11.539062 28.105469 C 11.539062 28.136719 11.515625 28.164062 11.484375 28.164062 "/><path style=" stroke:none;fill-rule:nonzero;fill:#8c6c60;fill-opacity:1;" d="M 11.695312 10.84375 L 11.328125 10.777344 L 11.238281 11.257812 L 10.410156 11.003906 C 9.910156 10.867188 9.378906 10.9375 8.929688 11.199219 C 8.253906 11.597656 7.890625 12.367188 8.015625 13.140625 L 8.160156 14.035156 L 8.21875 16.066406 L 9.335938 16.273438 C 9.761719 16.351562 10.199219 16.199219 10.488281 15.871094 L 10.855469 15.460938 L 10.960938 14.875 C 11.015625 14.585938 11.292969 14.394531 11.585938 14.449219 L 11.503906 15.035156 L 11.863281 15.101562 L 12.117188 14.304688 C 12.191406 14.042969 12.460938 13.890625 12.722656 13.960938 L 12.894531 13.878906 C 13.261719 13.695312 13.519531 13.351562 13.59375 12.953125 L 13.597656 12.945312 C 13.664062 12.566406 13.582031 12.167969 13.347656 11.863281 C 12.945312 11.328125 12.355469 10.964844 11.695312 10.84375 "/><path style=" stroke:none;fill-rule:nonzero;fill:#333333;fill-opacity:1;" d="M 8.273438 16.019531 L 9.34375 16.214844 C 9.75 16.289062 10.171875 16.144531 10.445312 15.835938 L 10.800781 15.433594 L 10.90625 14.867188 C 10.933594 14.710938 11.023438 14.578125 11.152344 14.488281 C 11.28125 14.398438 11.441406 14.363281 11.59375 14.394531 L 11.648438 14.402344 L 11.566406 14.992188 L 11.824219 15.039062 L 12.0625 14.285156 C 12.144531 14.007812 12.433594 13.839844 12.714844 13.902344 L 12.871094 13.828125 C 13.21875 13.65625 13.46875 13.324219 13.539062 12.941406 L 13.539062 12.9375 C 13.609375 12.5625 13.523438 12.183594 13.304688 11.894531 C 12.90625 11.371094 12.332031 11.019531 11.683594 10.898438 L 11.375 10.84375 L 11.285156 11.328125 L 10.394531 11.058594 C 9.914062 10.925781 9.390625 10.996094 8.960938 11.25 C 8.296875 11.636719 7.949219 12.375 8.070312 13.132812 L 8.214844 14.035156 Z M 9.554688 16.347656 C 9.476562 16.347656 9.402344 16.339844 9.324219 16.328125 L 8.164062 16.113281 L 8.101562 14.042969 L 7.960938 13.148438 C 7.832031 12.347656 8.203125 11.5625 8.902344 11.152344 C 9.359375 10.882812 9.914062 10.8125 10.425781 10.953125 L 11.195312 11.183594 L 11.285156 10.710938 L 11.703125 10.789062 C 12.378906 10.914062 12.980469 11.28125 13.394531 11.828125 C 13.632812 12.140625 13.726562 12.550781 13.652344 12.957031 L 13.648438 12.960938 C 13.574219 13.378906 13.300781 13.738281 12.917969 13.929688 L 12.730469 14.023438 L 12.707031 14.015625 C 12.476562 13.953125 12.238281 14.089844 12.171875 14.320312 L 11.902344 15.167969 L 11.441406 15.082031 L 11.523438 14.496094 C 11.414062 14.488281 11.308594 14.515625 11.214844 14.578125 C 11.109375 14.652344 11.039062 14.761719 11.015625 14.886719 L 10.90625 15.484375 L 10.53125 15.910156 C 10.285156 16.191406 9.925781 16.347656 9.554688 16.347656 "/><path style=" stroke:none;fill-rule:nonzero;fill:#333333;fill-opacity:1;" d="M 11.664062 11.457031 L 11.222656 11.3125 L 11.257812 11.203125 L 11.699219 11.351562 L 11.664062 11.457031 "/><path style=" stroke:none;fill-rule:nonzero;fill:#ed8366;fill-opacity:1;" d="M 11.445312 21.550781 C 12.144531 23.503906 12.527344 24.371094 12.953125 24.890625 C 13.378906 25.414062 13.628906 25.660156 14.140625 25.660156 L 19.09375 25.328125 C 19.25 24.8125 19.164062 24.257812 18.859375 23.8125 L 14.976562 23.6875 L 13.933594 20.511719 C 13.765625 19.890625 13.550781 19.304688 13.121094 18.90625 C 13.105469 18.894531 13.09375 18.882812 13.078125 18.867188 C 12.765625 18.597656 12.320312 18.527344 11.957031 18.726562 "/><path style=" stroke:none;fill-rule:nonzero;fill:#333333;fill-opacity:1;" d="M 14.144531 25.71875 C 13.613281 25.714844 13.347656 25.464844 12.910156 24.925781 C 12.484375 24.410156 12.117188 23.59375 11.390625 21.570312 L 11.5 21.53125 C 12.210938 23.515625 12.589844 24.355469 12.996094 24.855469 C 13.421875 25.375 13.660156 25.605469 14.140625 25.605469 L 19.050781 25.273438 C 19.1875 24.792969 19.105469 24.285156 18.828125 23.867188 L 14.933594 23.742188 L 13.878906 20.527344 C 13.722656 19.941406 13.515625 19.347656 13.082031 18.949219 C 13.070312 18.933594 13.054688 18.921875 13.042969 18.910156 C 12.738281 18.648438 12.316406 18.59375 11.984375 18.773438 L 11.929688 18.675781 C 12.300781 18.472656 12.777344 18.535156 13.117188 18.824219 C 13.128906 18.839844 13.144531 18.851562 13.160156 18.863281 C 13.613281 19.285156 13.824219 19.894531 13.988281 20.496094 L 15.019531 23.632812 L 18.890625 23.757812 L 18.90625 23.78125 C 19.222656 24.242188 19.308594 24.8125 19.148438 25.34375 L 19.136719 25.382812 L 14.144531 25.71875 "/><path style=" stroke:none;fill-rule:nonzero;fill:#58595b;fill-opacity:1;" d="M 11.445312 28.105469 L 5.265625 28.105469 C 5.132812 28.105469 5.027344 28.210938 5.027344 28.34375 L 5.027344 28.863281 C 5.027344 28.992188 5.132812 29.101562 5.265625 29.101562 L 11.445312 29.101562 C 11.578125 29.101562 11.683594 28.992188 11.683594 28.863281 L 11.683594 28.34375 C 11.683594 28.210938 11.578125 28.105469 11.445312 28.105469 "/><path style=" stroke:none;fill-rule:nonzero;fill:#333333;fill-opacity:1;" d="M 5.265625 28.164062 C 5.164062 28.164062 5.082031 28.242188 5.082031 28.34375 L 5.082031 28.863281 C 5.082031 28.960938 5.164062 29.042969 5.265625 29.042969 L 11.445312 29.042969 C 11.546875 29.042969 11.628906 28.960938 11.628906 28.863281 L 11.628906 28.34375 C 11.628906 28.242188 11.546875 28.164062 11.445312 28.164062 Z M 11.445312 29.15625 L 5.265625 29.15625 C 5.101562 29.15625 4.972656 29.023438 4.972656 28.863281 L 4.972656 28.34375 C 4.972656 28.183594 5.101562 28.050781 5.265625 28.050781 L 11.445312 28.050781 C 11.609375 28.050781 11.738281 28.183594 11.738281 28.34375 L 11.738281 28.863281 C 11.738281 29.023438 11.609375 29.15625 11.445312 29.15625 "/><path style=" stroke:none;fill-rule:nonzero;fill:#206689;fill-opacity:1;" d="M 15.539062 29.214844 C 15.324219 29.136719 15.097656 29.101562 14.871094 29.101562 L 5.578125 29.101562 L 4.851562 30.550781 L 5.070312 30.984375 L 16.902344 30.984375 L 16.898438 30.949219 C 16.828125 30.15625 16.296875 29.476562 15.539062 29.214844 "/><g clip-rule="nonzero" clip-path="url(#485d85dfc9)"><path style=" stroke:none;fill-rule:nonzero;fill:#333333;fill-opacity:1;" d="M 5.105469 30.929688 L 16.839844 30.929688 C 16.761719 30.167969 16.246094 29.519531 15.523438 29.265625 C 15.3125 29.195312 15.09375 29.15625 14.871094 29.15625 L 5.613281 29.15625 L 4.914062 30.550781 Z M 16.964844 31.039062 L 5.035156 31.039062 L 4.789062 30.550781 L 5.542969 29.042969 L 14.871094 29.042969 C 15.105469 29.042969 15.335938 29.082031 15.558594 29.160156 C 16.335938 29.429688 16.882812 30.132812 16.953125 30.945312 L 16.964844 31.039062 "/></g><path style=" stroke:none;fill-rule:nonzero;fill:#5bb3c7;fill-opacity:1;" d="M 7.347656 23.894531 C 7.246094 23.308594 6.730469 22.878906 6.128906 22.878906 L 0.988281 22.878906 C 0.4375 22.878906 0.0234375 23.371094 0.121094 23.910156 L 1.375 30.984375 L 8.605469 30.984375 C 8.601562 30.964844 8.597656 30.945312 8.59375 30.925781 L 7.347656 23.894531 "/><g clip-rule="nonzero" clip-path="url(#2f0088681f)"><path style=" stroke:none;fill-rule:nonzero;fill:#333333;fill-opacity:1;" d="M 1.421875 30.929688 L 8.539062 30.929688 L 7.292969 23.90625 C 7.191406 23.34375 6.703125 22.933594 6.128906 22.933594 L 0.988281 22.933594 C 0.742188 22.933594 0.511719 23.042969 0.355469 23.226562 C 0.199219 23.414062 0.132812 23.660156 0.175781 23.898438 Z M 8.667969 31.039062 L 1.328125 31.039062 L 0.0625 23.917969 C 0.015625 23.648438 0.0898438 23.367188 0.269531 23.15625 C 0.449219 22.945312 0.710938 22.820312 0.988281 22.820312 L 6.128906 22.820312 C 6.757812 22.820312 7.292969 23.269531 7.402344 23.886719 L 8.652344 30.914062 C 8.65625 30.9375 8.65625 30.957031 8.660156 30.976562 L 8.667969 31.039062 "/></g><path style=" stroke:none;fill-rule:nonzero;fill:#333333;fill-opacity:1;" d="M 7.324219 29.9375 L 6.390625 24.398438 C 6.324219 24.019531 6 23.742188 5.613281 23.742188 L 1.023438 23.742188 L 1.023438 23.628906 L 5.613281 23.628906 C 6.054688 23.628906 6.425781 23.945312 6.5 24.378906 L 7.433594 29.917969 L 7.324219 29.9375 "/><path style=" stroke:none;fill-rule:nonzero;fill:#5bb3c7;fill-opacity:1;" d="M 13.855469 28.800781 L 10.035156 28.800781 C 9.753906 28.800781 9.523438 29.027344 9.523438 29.308594 L 14.367188 29.308594 C 14.367188 29.027344 14.136719 28.800781 13.855469 28.800781 "/><path style=" stroke:none;fill-rule:nonzero;fill:#333333;fill-opacity:1;" d="M 9.585938 29.253906 L 14.304688 29.253906 C 14.277344 29.03125 14.085938 28.855469 13.855469 28.855469 L 10.035156 28.855469 C 9.804688 28.855469 9.613281 29.03125 9.585938 29.253906 Z M 14.421875 29.363281 L 9.46875 29.363281 L 9.46875 29.308594 C 9.46875 28.996094 9.722656 28.746094 10.035156 28.746094 L 13.855469 28.746094 C 14.167969 28.746094 14.421875 28.996094 14.421875 29.308594 L 14.421875 29.363281 "/><path style=" stroke:none;fill-rule:nonzero;fill:#58595b;fill-opacity:1;" d="M 14.367188 29.308594 L 9.523438 29.308594 L 9.523438 30.984375 L 9.988281 30.984375 L 9.988281 29.648438 L 13.832031 29.648438 L 13.246094 30.984375 L 13.777344 30.984375 L 14.160156 30.113281 C 14.296875 29.808594 14.367188 29.644531 14.367188 29.308594 "/><g clip-rule="nonzero" clip-path="url(#12e78eb050)"><path style=" stroke:none;fill-rule:nonzero;fill:#333333;fill-opacity:1;" d="M 13.332031 30.929688 L 13.742188 30.929688 L 14.109375 30.089844 C 14.230469 29.816406 14.300781 29.65625 14.308594 29.363281 L 9.582031 29.363281 L 9.582031 30.929688 L 9.933594 30.929688 L 9.933594 29.59375 L 13.917969 29.59375 Z M 13.816406 31.039062 L 13.160156 31.039062 L 13.746094 29.703125 L 10.042969 29.703125 L 10.042969 31.039062 L 9.46875 31.039062 L 9.46875 29.253906 L 14.421875 29.253906 L 14.421875 29.308594 C 14.421875 29.660156 14.34375 29.839844 14.210938 30.136719 L 13.816406 31.039062 "/></g></g></svg>